<svg xmlns="http://www.w3.org/2000/svg" xmlns:xlink="http://www.w3.org/1999/xlink" viewBox="0 0 105.31 105.31"><defs><style>.cls-1{fill:#12191f;}.cls-2{fill:url(#linear-gradient);}.cls-3{fill:#93a2ad;}.cls-3,.cls-4,.cls-5,.cls-6,.cls-7{fill-rule:evenodd;}.cls-4{fill:url(#linear-gradient-2);}.cls-5{fill:url(#linear-gradient-3);}.cls-6{fill:url(#linear-gradient-4);}.cls-7{fill:url(#linear-gradient-5);}</style><linearGradient id="linear-gradient" x1="1.17" y1="104.14" x2="104.14" y2="1.17" gradientUnits="userSpaceOnUse"><stop offset="0" stop-color="#44339f"/><stop offset="0.03" stop-color="#4145a9"/><stop offset="0.09" stop-color="#3b65ba"/><stop offset="0.16" stop-color="#3580c9"/><stop offset="0.24" stop-color="#3197d5"/><stop offset="0.33" stop-color="#2ea8df"/><stop offset="0.44" stop-color="#2cb4e5"/><stop offset="0.6" stop-color="#2abbe9"/><stop offset="1" stop-color="#2abdea"/></linearGradient><linearGradient id="linear-gradient-2" x1="-1190.58" y1="23.37" x2="-1210.84" y2="47.17" gradientTransform="matrix(1, 0, -0.41, 1, 1261.95, 0)" gradientUnits="userSpaceOnUse"><stop offset="0.12" stop-color="#44339f"/><stop offset="0.15" stop-color="#433ba3"/><stop offset="0.28" stop-color="#3b62b9"/><stop offset="0.41" stop-color="#3583cb"/><stop offset="0.54" stop-color="#309dd8"/><stop offset="0.68" stop-color="#2dafe2"/><stop offset="0.83" stop-color="#2bbae8"/><stop offset="1" stop-color="#2abdea"/></linearGradient><linearGradient id="linear-gradient-3" x1="-1213.66" y1="40.58" x2="-1203.78" y2="71.74" xlink:href="#linear-gradient-2"/><linearGradient id="linear-gradient-4" x1="-1200.68" y1="70.16" x2="-1176.21" y2="75.39" xlink:href="#linear-gradient-2"/><linearGradient id="linear-gradient-5" x1="1999.52" y1="7716.27" x2="2008.14" y2="7743.45" gradientTransform="matrix(-0.84, 0.82, -0.65, -0.53, 6775.72, 2441.63)" gradientUnits="userSpaceOnUse"><stop offset="0.2" stop-color="#44339f"/><stop offset="0.24" stop-color="#4144a8"/><stop offset="0.34" stop-color="#3a69bc"/><stop offset="0.46" stop-color="#3487cd"/><stop offset="0.57" stop-color="#309fda"/><stop offset="0.7" stop-color="#2cb0e3"/><stop offset="0.83" stop-color="#2bbae8"/><stop offset="1" stop-color="#2abdea"/></linearGradient></defs><title>HCL_Connection_Master</title><g id="Layer_2" data-name="Layer 2"><g id="Layer_2-2" data-name="Layer 2"><rect class="cls-1" x="4" y="4" width="97.31" height="97.31"/><path class="cls-2" d="M101.31,4v97.31H4V4h97.31m0-4H4A4,4,0,0,0,0,4v97.31a4,4,0,0,0,4,4h97.31a4,4,0,0,0,4-4V4a4,4,0,0,0-4-4Z"/><polygon class="cls-3" points="88.13 42.29 81.18 20.99 60.41 50.98 88.13 42.29"/><polygon class="cls-4" points="45.61 24.7 17.89 52.74 55.68 39.54 45.61 24.7"/><polygon class="cls-5" points="17.89 52.74 23.36 81.46 43.67 43.74 17.89 52.74"/><polygon class="cls-6" points="43.25 60.82 29.74 81.47 57.87 81.51 43.25 60.82"/><polygon class="cls-3" points="57.87 81.51 84.67 56.36 48.19 67.81 57.87 81.51"/><polygon class="cls-7" points="81.18 20.99 50.21 20.7 66.08 42.79 81.18 20.99"/></g></g></svg>